<?xml version="1.0" standalone="no"?>
<!DOCTYPE svg PUBLIC "-//W3C//DTD SVG 20010904//EN"
 "http://www.w3.org/TR/2001/REC-SVG-20010904/DTD/svg10.dtd">
<svg version="1.0" xmlns="http://www.w3.org/2000/svg"
 width="800.000000pt" height="985.000000pt" viewBox="0 0 800.000000 985.000000"
 preserveAspectRatio="xMidYMid meet">

<g transform="translate(0.000000,985.000000) scale(0.100000,-0.100000)"
fill="#000000" stroke="none">
<path d="M2791 3375 c-24 -8 -61 -31 -82 -51 -55 -54 -74 -110 -74 -220 0 -81
3 -97 30 -149 23 -46 42 -66 79 -90 46 -28 56 -30 146 -30 90 0 100 2 146 30
37 24 56 44 79 90 27 52 30 68 30 149 0 110 -14 155 -68 213 -62 68 -179 91
-286 58z m170 -91 c45 -23 69 -83 69 -177 0 -127 -45 -187 -140 -187 -95 0
-140 61 -140 190 0 131 44 189 143 190 21 0 52 -7 68 -16z"/>
<path d="M5195 3376 c-131 -41 -186 -120 -187 -266 -1 -125 36 -206 115 -250
52 -30 193 -39 272 -17 l50 13 3 142 3 142 -106 0 -105 0 0 -45 0 -45 50 0 50
0 0 -65 0 -65 -61 0 c-109 0 -159 57 -159 181 0 152 113 235 253 184 l39 -13
18 41 c10 23 17 43 15 45 -2 3 -30 11 -62 18 -71 17 -135 17 -188 0z"/>
<path d="M2020 3110 l0 -270 51 0 50 0 -3 205 c-2 113 0 205 3 205 3 0 59 -92
123 -205 l118 -205 74 0 74 0 0 270 0 270 -51 0 -50 0 3 -205 c2 -113 0 -205
-3 -205 -3 0 -59 92 -124 205 l-118 205 -73 0 -74 0 0 -270z"/>
<path d="M3430 3350 c0 -25 6 -32 35 -44 l35 -15 0 -181 0 -180 -35 -17 c-28
-13 -35 -23 -35 -45 l0 -28 120 0 120 0 0 29 c0 22 -6 31 -30 41 l-30 12 0
184 0 183 30 16 c23 12 30 22 30 45 l0 30 -120 0 -120 0 0 -30z"/>
<path d="M3780 3110 l0 -270 45 0 45 0 2 218 3 217 66 -215 67 -215 53 -3 54
-2 69 215 c39 118 71 213 74 211 2 -2 3 -99 2 -215 l-1 -211 51 0 50 0 0 270
0 271 -77 -3 -76 -3 -68 -204 c-38 -112 -70 -206 -73 -208 -2 -3 -25 62 -51
144 -25 81 -55 176 -66 211 l-21 62 -74 0 -74 0 0 -270z"/>
<path d="M4621 3347 c-6 -18 -49 -140 -95 -270 l-83 -237 58 0 57 0 22 65 22
65 103 0 103 0 18 -65 19 -65 57 0 c32 0 58 3 57 8 0 4 -42 124 -92 267 l-93
260 -71 3 -71 3 -11 -34z m159 -284 c0 -2 -34 -3 -75 -3 -41 0 -75 3 -75 6 0
6 58 198 67 224 4 11 81 -201 83 -227z"/>
<path d="M5590 3110 l0 -270 155 0 155 0 0 40 0 40 -100 0 -101 0 3 78 3 77
93 3 92 3 0 39 0 40 -95 0 -95 0 0 65 0 65 100 0 100 0 0 45 0 45 -155 0 -155
0 0 -270z"/>
<path d="M1962 2142 c-51 -147 -92 -271 -92 -275 0 -4 25 -7 56 -5 l57 3 20
68 20 67 103 0 103 0 22 -70 21 -70 59 0 58 0 -60 173 c-34 94 -77 218 -97
275 l-35 102 -71 0 -71 0 -93 -268z m205 70 c18 -59 33 -110 33 -114 0 -5 -34
-8 -76 -8 -64 0 -75 2 -70 15 3 9 20 63 37 120 18 58 35 103 38 100 3 -3 20
-54 38 -113z"/>
<path d="M2375 2393 c3 -10 45 -133 93 -273 l87 -255 60 -3 60 -3 89 263 c49
145 91 269 94 276 3 9 -11 12 -51 12 l-55 0 -50 -157 c-28 -87 -58 -189 -68
-226 -9 -37 -18 -66 -19 -65 -2 2 -10 32 -19 68 -9 36 -39 136 -67 223 l-50
157 -55 0 c-48 0 -55 -2 -49 -17z"/>
<path d="M2993 2293 c-23 -65 -66 -189 -97 -275 l-55 -158 59 0 59 0 21 70 21
70 103 0 104 0 21 -70 22 -70 54 0 c35 0 55 4 55 12 0 6 -42 130 -92 275 l-93
263 -71 0 -71 0 -40 -117z m152 -82 c19 -62 35 -115 35 -117 0 -2 -34 -4 -75
-4 -41 0 -75 2 -75 4 0 1 4 16 10 32 5 16 21 69 35 117 15 49 28 87 30 85 3
-2 20 -55 40 -117z"/>
<path d="M3400 2380 c0 -25 6 -32 35 -44 l35 -15 0 -185 0 -184 -35 -12 c-31
-10 -35 -15 -35 -46 l0 -35 123 3 122 3 3 27 c3 23 -3 31 -32 45 l-36 17 0
183 0 183 35 17 c28 13 35 23 35 45 l0 28 -125 0 -125 0 0 -30z"/>
<path d="M3750 2135 l0 -275 165 0 165 0 0 45 0 45 -110 0 -110 0 0 230 0 230
-55 0 -55 0 0 -275z"/>
<path d="M4305 2393 c-12 -30 -185 -525 -185 -529 0 -2 26 -4 58 -4 l58 0 20
68 19 67 104 0 104 0 22 -65 22 -65 56 -3 c31 -2 57 1 57 5 0 4 -43 127 -94
273 l-94 265 -70 3 c-59 2 -71 0 -77 -15z m116 -180 l35 -118 -69 -3 c-38 -2
-72 -1 -74 2 -3 3 9 51 26 107 17 56 31 108 31 115 0 41 20 1 51 -103z"/>
<path d="M4720 2135 l0 -278 139 6 c153 6 193 17 236 69 20 24 25 40 25 87 0
64 -15 93 -62 117 l-32 16 27 14 c52 28 73 113 42 173 -26 51 -73 65 -232 69
l-143 4 0 -277z m260 165 c11 -11 20 -31 20 -43 0 -40 -34 -61 -106 -65 l-64
-4 0 66 0 66 65 0 c52 0 69 -4 85 -20z m12 -220 c20 -25 23 -61 8 -90 -13 -24
-62 -40 -121 -40 l-49 0 0 81 0 82 72 -5 c59 -5 75 -10 90 -28z"/>
<path d="M5240 2135 l0 -275 170 0 170 0 0 45 0 44 -112 3 -113 3 -3 228 -2
227 -55 0 -55 0 0 -275z"/>
<path d="M5680 2135 l0 -275 155 0 155 0 0 45 0 45 -100 0 -100 0 0 75 0 75
95 0 95 0 0 45 0 45 -95 0 -95 0 0 65 0 65 100 0 100 0 0 45 0 45 -155 0 -155
0 0 -275z"/>
</g>
</svg>
